<?xml version="1.0" standalone="no"?>
<!DOCTYPE svg PUBLIC "-//W3C//DTD SVG 20010904//EN"
 "http://www.w3.org/TR/2001/REC-SVG-20010904/DTD/svg10.dtd">
<svg version="1.0" xmlns="http://www.w3.org/2000/svg"
 width="1008.000000pt" height="196.000000pt" viewBox="0 0 1008.000000 196.000000"
 preserveAspectRatio="xMidYMid meet">

<g transform="translate(0.000000,196.000000) scale(0.100000,-0.100000)"
fill="#f2f2f2" stroke="#f2f2f2">
<path d="M835 1948 c-346 -57 -601 -244 -739 -540 -51 -110 -67 -186 -73 -344
-5 -121 -3 -142 11 -156 17 -18 22 -43 6 -33 -5 3 -10 -2 -10 -11 0 -31 42
-174 51 -174 5 0 9 -10 9 -21 0 -25 57 -129 71 -129 5 0 8 -3 7 -7 -3 -16 15
-43 28 -43 8 0 11 -6 8 -15 -4 -9 0 -15 9 -15 8 0 22 -15 30 -32 17 -35 50
-68 68 -68 5 0 8 -4 5 -8 -6 -11 53 -56 61 -48 4 3 1 6 -5 6 -7 0 -12 5 -12
11 0 8 4 8 14 -1 8 -6 12 -18 9 -26 -3 -8 0 -14 7 -14 6 0 28 -13 48 -29 20
-16 52 -32 70 -36 18 -4 30 -11 26 -16 -3 -5 2 -9 11 -9 10 0 15 9 15 28 -1
15 6 56 14 92 55 233 189 399 414 510 31 15 131 58 222 95 206 84 361 160 443
219 79 56 158 139 187 196 l23 44 -58 -52 c-45 -42 -212 -152 -229 -152 -3 0
-37 -15 -78 -34 -112 -52 -196 -83 -403 -151 -289 -95 -452 -191 -595 -352
-38 -41 -71 -103 -64 -115 4 -7 2 -8 -4 -4 -7 4 -14 -4 -18 -20 -4 -15 -13
-39 -20 -53 -8 -14 -14 -32 -14 -38 0 -52 -112 56 -193 185 -49 79 -107 258
-107 331 0 31 -4 61 -8 68 -4 7 -4 49 1 95 23 222 92 378 233 528 112 118 252
204 400 246 88 25 329 31 418 10 253 -59 470 -225 581 -443 l37 -72 29 21 c16
12 29 23 29 26 0 8 -55 99 -88 147 -109 156 -312 305 -492 363 -127 40 -284
57 -385 40z m-761 -1104 c3 -8 2 -12 -4 -9 -6 3 -10 10 -10 16 0 14 7 11 14
-7z m60 -224 c10 -13 9 -13 -6 -1 -10 7 -18 21 -17 30 0 13 1 14 6 1 3 -8 11
-22 17 -30z m126 -150 c0 -5 -2 -10 -4 -10 -3 0 -8 5 -11 10 -3 6 -1 10 4 10
6 0 11 -4 11 -10z m230 -230 c0 -5 -2 -10 -4 -10 -3 0 -8 5 -11 10 -3 6 -1 10
4 10 6 0 11 -4 11 -10z"/>
<path d="M7092 1888 c-23 -37 -321 -562 -419 -737 -35 -63 -73 -130 -84 -148
l-21 -33 64 0 63 0 43 80 c24 44 50 94 60 112 9 18 22 36 27 40 18 14 369 9
388 -4 11 -8 28 -55 44 -120 l27 -108 63 0 c35 0 62 3 60 8 -2 4 -14 41 -27
82 -12 41 -28 93 -35 115 -8 22 -23 74 -35 115 -12 41 -34 113 -50 160 -28 87
-37 116 -85 275 -15 50 -35 114 -45 143 l-17 54 -21 -34z m21 -300 c9 -29 30
-98 46 -154 17 -56 31 -109 31 -118 0 -14 -18 -16 -155 -16 -90 0 -155 4 -155
9 0 19 194 331 205 331 7 0 19 -24 28 -52z"/>
<path d="M4890 1904 c-41 -8 -133 -44 -168 -66 -128 -79 -206 -196 -232 -347
-12 -73 -9 -183 8 -236 30 -96 96 -184 182 -241 135 -90 384 -82 544 19 26 16
127 116 144 142 89 140 109 342 48 486 -16 38 -79 125 -105 146 -25 20 -121
75 -134 77 -7 1 -18 5 -26 10 -15 10 -222 17 -261 10z m266 -122 c56 -29 126
-97 155 -152 21 -40 24 -58 24 -161 0 -77 -5 -126 -14 -145 -62 -134 -108
-186 -205 -234 -77 -37 -165 -48 -260 -31 -108 19 -188 80 -234 178 -24 52
-27 69 -26 163 0 86 5 114 23 155 54 121 129 197 234 236 73 27 243 22 303 -9z"/>
<path d="M5782 1890 c-6 -14 -20 -59 -32 -100 -12 -41 -30 -102 -40 -135 -40
-133 -60 -203 -75 -255 -9 -30 -23 -73 -30 -95 -7 -22 -23 -74 -35 -115 -12
-41 -30 -104 -41 -139 -10 -35 -19 -68 -19 -73 0 -4 25 -8 55 -8 l54 0 16 58
c9 31 25 91 36 132 40 149 76 277 95 342 8 26 14 54 14 62 0 9 4 16 9 16 14 0
27 -22 40 -70 6 -25 16 -54 21 -65 5 -11 20 -58 35 -105 15 -47 30 -94 35
-105 5 -11 27 -76 50 -145 22 -69 43 -131 46 -139 4 -11 8 -8 18 10 13 25 139
240 246 419 33 56 60 104 60 106 0 14 64 103 71 98 5 -3 9 -87 9 -188 0 -101
3 -238 7 -304 l6 -122 51 0 52 0 -3 68 c-3 73 -20 425 -32 695 -5 92 -11 170
-13 173 -4 4 -39 -53 -118 -190 -10 -17 -41 -71 -70 -121 -29 -49 -60 -103
-70 -120 -140 -240 -174 -295 -180 -288 -8 8 -62 161 -151 428 -28 83 -57 164
-65 182 -8 17 -14 35 -14 41 0 5 -6 25 -14 43 l-14 34 -10 -25z"/>
<path d="M8860 1903 c-80 -15 -183 -76 -252 -148 -46 -48 -103 -160 -119 -235
-18 -83 -7 -242 22 -315 33 -85 141 -193 224 -224 84 -31 192 -38 294 -17 98
20 118 31 130 71 14 48 22 97 13 93 -144 -74 -143 -73 -247 -73 -89 0 -106 3
-156 28 -69 34 -109 75 -145 147 -38 76 -45 216 -16 307 38 115 100 191 195
240 42 22 70 27 144 31 87 4 96 2 158 -27 37 -17 78 -40 92 -51 30 -23 39 -25
41 -7 0 6 5 29 10 49 8 30 7 40 -7 52 -26 23 -113 64 -161 75 -45 10 -173 12
-220 4z"/>
<path d="M2106 1864 c-7 -31 -27 -182 -51 -379 -8 -66 -17 -133 -20 -150 -5
-33 -33 -241 -42 -319 l-6 -48 189 5 c198 6 212 8 282 26 135 37 249 161 296
323 36 125 11 307 -55 398 -100 138 -166 164 -420 169 l-167 3 -6 -28z m389
-105 c61 -31 99 -70 132 -137 26 -52 28 -66 27 -167 0 -93 -4 -119 -24 -165
-51 -118 -124 -179 -248 -205 -80 -16 -257 -21 -266 -6 -4 5 -1 40 4 78 6 37
20 136 30 218 39 309 50 386 59 403 14 27 222 13 286 -19z"/>
<path d="M3009 1888 c-1 -2 -7 -52 -15 -113 -22 -184 -69 -542 -93 -710 -6
-38 -10 -76 -11 -82 0 -9 18 -13 55 -13 36 0 57 5 60 13 2 6 11 71 20 142 20
163 50 395 70 545 9 63 19 139 22 168 l5 52 -56 0 c-31 0 -57 -1 -57 -2z"/>
<path d="M3346 1879 c-2 -8 -7 -34 -10 -59 -6 -53 -42 -332 -61 -475 -7 -55
-21 -158 -29 -229 -9 -71 -19 -133 -22 -137 -3 -5 21 -9 53 -9 l59 0 12 98 c6
53 17 140 23 192 7 52 16 101 22 108 6 8 41 12 106 12 124 1 168 10 222 46
158 106 152 354 -10 435 -39 20 -65 23 -203 27 -128 4 -158 2 -162 -9z m287
-100 c48 -13 73 -37 88 -87 21 -72 -12 -156 -76 -193 -33 -19 -211 -36 -232
-22 -9 6 -9 32 2 108 22 166 27 190 40 201 15 12 121 8 178 -7z"/>
<path d="M4020 1868 c-1 -27 -11 -107 -40 -323 -12 -88 -28 -207 -35 -265 -8
-58 -19 -136 -24 -175 -6 -38 -10 -85 -11 -102 l0 -33 220 0 220 0 0 34 c0 19
3 41 6 50 5 14 -12 16 -154 16 -89 0 -163 4 -166 9 -4 5 1 60 9 123 24 174 44
328 65 495 10 84 21 162 25 173 6 19 2 20 -54 20 -56 0 -61 -2 -61 -22z"/>
<path d="M7520 1878 c0 -7 -3 -30 -6 -50 l-7 -38 111 0 c61 0 113 -3 115 -7 4
-7 -10 -128 -48 -420 -8 -62 -22 -166 -30 -230 -8 -65 -17 -128 -20 -140 -5
-22 -3 -23 53 -23 l58 0 12 103 c7 56 20 149 28 207 8 58 21 155 29 215 15
118 21 161 33 240 l7 50 116 3 116 3 7 37 c3 20 6 43 6 50 0 9 -65 12 -290 12
-225 0 -290 -3 -290 -12z"/>
<path d="M8237 1843 c-7 -62 -43 -338 -62 -478 -8 -60 -22 -166 -30 -235 -9
-69 -18 -133 -21 -142 -5 -16 2 -18 54 -18 l59 0 12 93 c7 50 19 139 26 197 8
58 23 173 34 255 11 83 25 188 30 235 6 47 13 97 16 113 4 27 4 27 -54 27
l-58 0 -6 -47z"/>
<path d="M868 1793 c7 -3 16 -2 19 1 4 3 -2 6 -13 5 -11 0 -14 -3 -6 -6z"/>
<path d="M665 1746 c-61 -24 -139 -66 -132 -72 1 -2 27 5 57 15 30 11 75 25
100 32 25 7 53 18 63 25 16 10 16 12 2 18 -22 8 -22 8 -90 -18z"/>
<path d="M1126 1761 c-8 -12 46 -36 114 -51 30 -7 67 -19 82 -26 43 -22 56
-16 18 8 -39 24 -174 78 -195 78 -8 0 -16 -4 -19 -9z"/>
<path d="M833 1733 c-23 -8 -54 -28 -68 -45 -103 -122 132 -244 308 -159 113
55 107 151 -11 202 -53 23 -167 24 -229 2z"/>
<path d="M588 1636 c-129 -46 -154 -72 -128 -137 l12 -29 47 34 c25 18 74 48
109 66 54 28 62 36 62 61 0 36 -12 37 -102 5z"/>
<path d="M1203 1630 c0 -27 6 -34 51 -54 28 -13 76 -42 106 -65 l54 -41 13 23
c7 12 12 36 13 53 0 26 -6 33 -47 53 -59 29 -150 61 -173 61 -12 0 -17 -9 -17
-30z"/>
<path d="M629 1514 c-36 -19 -80 -47 -98 -62 -31 -26 -31 -28 -15 -50 19 -27
92 -82 108 -82 6 0 21 25 33 55 13 30 36 73 52 96 25 34 28 44 18 60 -16 25
-21 24 -98 -17z"/>
<path d="M1163 1532 c-9 -15 -4 -29 28 -78 22 -32 45 -76 51 -96 6 -21 17 -38
24 -38 14 0 93 64 112 91 11 16 8 22 -30 50 -43 31 -150 89 -165 89 -5 0 -13
-8 -20 -18z"/>
<path d="M358 1511 c-19 -17 -47 -48 -63 -70 -29 -43 -29 -58 1 -129 l14 -35
26 39 c14 22 42 55 61 75 l34 36 -19 57 -19 58 -35 -31z"/>
<path d="M1477 1483 l-18 -54 39 -43 c22 -23 47 -55 57 -69 9 -15 21 -27 26
-27 5 0 16 25 25 55 18 63 16 68 -47 140 -54 61 -62 61 -82 -2z"/>
<path d="M752 1442 c-29 -45 -72 -135 -72 -151 0 -12 105 -41 174 -48 l66 -6
0 105 0 105 -41 7 c-23 4 -54 13 -69 21 -28 14 -29 14 -58 -33z"/>
<path d="M1070 1471 c-8 -5 -34 -12 -57 -16 l-43 -7 0 -105 0 -106 70 7 c63 5
142 28 163 46 9 8 -24 89 -61 147 -27 43 -43 50 -72 34z"/>
<path d="M432 1356 c-16 -19 -44 -55 -61 -80 l-32 -46 22 -29 c39 -53 192
-160 203 -143 2 4 7 25 11 47 4 22 13 62 21 89 19 68 18 73 -15 90 -16 9 -49
36 -74 61 l-45 45 -30 -34z"/>
<path d="M1402 1365 c-20 -26 -83 -79 -111 -95 -12 -6 -12 -15 -1 -56 7 -27
15 -52 16 -55 5 -9 206 60 222 75 10 10 5 24 -31 72 -63 86 -71 90 -95 59z"/>
<path d="M210 1254 c-23 -74 -30 -168 -14 -184 6 -6 22 19 46 75 l36 84 -23
47 -23 48 -22 -70z"/>
<path d="M645 1183 c-10 -32 -18 -80 -19 -108 l-1 -49 68 -20 c72 -21 102 -18
190 19 l37 15 0 74 0 73 -70 7 c-39 4 -96 16 -127 27 -31 10 -57 19 -59 19 -1
0 -10 -26 -19 -57z"/>
<path d="M1162 1220 c-28 -10 -84 -22 -122 -26 l-70 -7 0 -63 0 -64 28 6 c33
7 148 40 215 61 38 12 47 19 42 32 -4 9 -11 31 -17 49 -10 37 -7 36 -76 12z"/>
<path d="M1836 1165 c-38 -195 -125 -344 -257 -440 -49 -37 -52 -37 -144 -39
-82 -1 -97 -4 -118 -24 -13 -12 -29 -22 -36 -22 -7 0 -9 -5 -6 -10 4 -6 -5
-26 -19 -45 -20 -25 -27 -50 -32 -104 -8 -81 2 -90 50 -46 28 25 29 30 26 84
-1 22 2 31 10 26 16 -10 40 14 40 41 0 15 6 24 15 24 10 0 15 -10 15 -30 0
-25 5 -31 38 -41 20 -6 90 -14 155 -18 l118 -6 29 45 c94 147 152 399 132 575
-8 69 -9 69 -16 30z"/>
<path d="M272 1088 c-18 -46 -32 -87 -32 -93 1 -29 139 -148 208 -179 l42 -19
24 22 c17 16 26 38 31 79 3 31 9 66 11 77 4 16 -8 26 -59 53 -36 18 -92 58
-125 87 -33 30 -62 55 -64 55 -2 0 -18 -37 -36 -82z"/>
<path d="M604 966 c-3 -8 -4 -28 -2 -45 l3 -30 48 28 49 28 -46 16 c-39 13
-48 14 -52 3z"/>
<path d="M1480 949 c-19 -10 -105 -52 -192 -93 -86 -41 -187 -94 -225 -119
-92 -60 -183 -144 -183 -168 0 -11 -5 -17 -10 -14 -6 3 -13 -2 -17 -12 -4 -10
-16 -31 -28 -48 -32 -45 -54 -98 -60 -146 -3 -23 -9 -48 -14 -53 -4 -6 -7 -31
-5 -56 2 -33 0 -40 -6 -25 -7 14 -9 4 -7 -35 l3 -55 181 -1 180 -1 -7 31 c-4
17 -5 48 -2 69 3 29 1 37 -12 37 -9 0 -16 5 -16 11 0 5 5 7 10 4 6 -4 10 5 10
20 0 26 16 105 27 135 4 8 5 19 4 24 -1 4 4 15 11 24 11 14 9 13 -12 -1 -37
-26 -70 -22 -70 7 0 31 55 137 97 186 18 21 97 81 176 134 138 92 232 166 212
165 -5 0 -26 -9 -45 -20z"/>
<path d="M215 865 c-10 -76 12 -132 72 -185 26 -22 50 -39 53 -38 4 2 30 28
59 59 l51 57 -66 38 c-37 21 -87 58 -112 81 -25 24 -47 43 -48 43 -2 0 -6 -25
-9 -55z"/>
<path d="M6860 790 c13 -8 12 -10 -3 -10 -10 0 -17 -5 -15 -12 6 -16 20 -19
37 -9 12 8 12 12 2 25 -8 9 -19 16 -25 16 -6 0 -4 -5 4 -10z"/>
<path d="M5764 780 c-11 -4 -28 -20 -37 -34 -20 -29 -23 -71 -5 -60 7 4 8 3 4
-5 -4 -6 0 -24 9 -38 12 -18 19 -22 25 -13 5 8 10 3 14 -15 5 -20 11 -25 24
-20 9 3 14 3 10 0 -10 -11 26 -42 41 -37 8 3 12 1 8 -5 -4 -5 0 -19 8 -29 17
-22 20 -70 5 -79 -6 -4 -9 -14 -8 -22 2 -9 -3 -18 -11 -21 -8 -3 -11 0 -7 7 7
10 -10 9 -77 -4 -9 -2 -15 1 -12 5 3 5 -4 11 -15 15 -11 4 -18 10 -15 15 3 4
-2 13 -10 20 -13 11 -15 9 -12 -9 4 -25 31 -51 70 -68 24 -11 27 -10 27 5 0
13 2 14 8 4 12 -18 54 -1 80 33 15 19 20 36 16 63 -4 37 -50 96 -66 86 -4 -3
-8 2 -8 10 0 8 -20 29 -45 47 -37 27 -45 38 -45 64 0 58 47 80 104 50 23 -12
31 -13 37 -3 8 13 -9 30 -22 22 -4 -2 -9 3 -13 11 -6 16 -48 19 -82 5z"/>
<path d="M8001 748 c-23 -63 -23 -66 4 -60 14 2 25 8 25 13 0 5 5 9 11 9 5 0
9 -8 8 -17 -4 -31 12 -70 37 -94 27 -25 31 -41 9 -33 -11 5 -13 2 -9 -9 4 -13
1 -15 -17 -12 -13 3 -26 0 -30 -6 -5 -8 -13 -8 -28 0 -17 10 -21 9 -21 -5 0
-14 10 -16 69 -12 58 3 69 1 68 -12 -1 -22 35 -100 45 -94 4 3 8 -3 8 -12 0
-10 3 -14 7 -11 10 10 -19 87 -32 87 -7 0 -12 10 -12 23 0 20 -26 80 -70 162
-6 11 -19 39 -28 63 -20 47 -32 52 -44 20z m29 -12 c0 -2 -8 -10 -17 -17 -16
-13 -17 -12 -4 4 13 16 21 21 21 13z"/>
<path d="M6139 679 c-7 -4 -16 -6 -21 -3 -17 11 -78 -27 -102 -62 -31 -46 -32
-49 -6 -51 17 -2 18 1 9 19 -7 13 -7 18 0 14 5 -4 15 3 21 14 17 33 59 47 115
39 28 -3 53 -4 57 0 10 10 -60 39 -73 30z"/>
<path d="M7449 675 c-18 -10 -26 -10 -31 -2 -6 9 -8 9 -8 0 0 -7 -8 -13 -17
-13 -16 -1 -16 -2 -2 -10 10 -6 29 -5 52 2 28 9 43 8 63 0 31 -15 53 -5 27 12
-30 21 -58 24 -84 11z"/>
<path d="M8768 682 c-16 -2 -28 -6 -28 -10 0 -4 -13 -13 -30 -20 -35 -16 -39
-27 -9 -29 12 -1 19 3 16 10 -4 12 28 20 90 20 38 1 80 -25 95 -59 15 -32 6
-39 -50 -40 -99 -1 -135 -4 -129 -10 7 -8 207 -8 214 0 8 7 -16 69 -35 91 -30
35 -83 53 -134 47z"/>
<path d="M9143 678 c-36 -17 -27 -26 20 -21 39 5 46 2 65 -22 12 -15 22 -37
22 -49 0 -12 5 -27 12 -34 9 -9 9 -12 0 -12 -8 0 -12 -24 -12 -76 0 -56 3 -75
13 -71 15 5 17 204 2 215 -5 4 -10 14 -10 22 0 8 -10 19 -22 26 -13 6 -20 14
-16 17 3 4 -1 7 -10 7 -8 0 -21 2 -29 4 -7 3 -23 0 -35 -6z m124 -235 c-2 -16
-4 -3 -4 27 0 30 2 43 4 28 2 -16 2 -40 0 -55z"/>
<path d="M6370 669 c0 -5 5 -7 10 -4 6 3 10 8 10 11 0 2 -4 4 -10 4 -5 0 -10
-5 -10 -11z"/>
<path d="M6425 663 c-2 -7 -18 -13 -35 -13 -28 0 -30 -3 -31 -37 0 -21 -2 -60
-3 -88 -1 -27 1 -62 5 -77 5 -17 3 -28 -4 -31 -9 -3 -9 -8 0 -18 22 -22 28 0
29 106 1 89 4 106 22 125 11 12 32 23 46 23 14 0 27 5 29 11 3 7 -6 12 -24 11
-16 0 -31 -6 -34 -12z"/>
<path d="M6753 669 c-6 -6 -9 -18 -6 -25 3 -8 1 -14 -4 -14 -10 0 -78 -147
-75 -162 1 -5 -4 -8 -12 -8 -14 0 -57 81 -90 165 -14 36 -15 37 -15 13 -1 -16
4 -28 9 -28 6 0 10 -5 10 -11 0 -5 -4 -7 -10 -4 -10 6 -2 -26 9 -35 6 -4 32
-55 36 -70 1 -3 7 -18 14 -35 7 -16 16 -39 21 -50 6 -16 14 -7 41 55 18 41 46
100 61 130 18 36 23 57 16 61 -6 4 -3 11 8 18 11 6 14 11 9 11 -6 0 -16 -5
-22 -11z"/>
<path d="M6850 537 c0 -133 2 -147 18 -147 14 0 15 2 2 10 -13 9 -13 11 0 20
13 9 13 10 0 10 -12 0 -12 2 -2 9 18 11 13 202 -5 227 -11 15 -13 -8 -13 -129z"/>
<path d="M7060 668 c0 -4 -8 -8 -18 -8 -10 0 -29 -11 -42 -25 -20 -22 -21 -25
-6 -25 10 0 20 9 23 19 3 11 12 20 21 20 10 1 31 2 47 3 60 3 94 -2 109 -17 8
-8 23 -15 33 -15 15 0 14 3 -7 20 -14 11 -33 20 -43 20 -10 0 -15 5 -12 10 3
6 -1 10 -10 10 -9 0 -13 -4 -10 -10 3 -5 1 -10 -4 -10 -6 0 -11 4 -11 9 0 5
-16 9 -35 8 -19 -1 -35 -5 -35 -9z"/>
<path d="M7953 642 c-8 -19 -12 -36 -9 -39 3 -3 -4 -15 -15 -26 -11 -12 -17
-27 -15 -34 3 -7 1 -13 -5 -13 -10 0 -35 -58 -31 -72 1 -5 -2 -8 -8 -8 -6 0
-10 -9 -10 -20 0 -11 -4 -20 -10 -20 -5 0 -10 -4 -10 -10 0 -26 29 -5 46 33
10 23 23 45 29 49 6 5 4 8 -5 8 -22 1 19 30 42 30 10 0 18 6 18 14 0 8 -7 13
-16 12 -9 0 -19 5 -22 13 -2 8 0 11 6 7 5 -3 17 11 26 32 10 20 21 45 26 54
13 23 13 25 -6 25 -9 0 -23 -16 -31 -35z"/>
<path d="M8349 664 c-6 -8 -18 -14 -25 -14 -8 0 -14 -4 -14 -8 0 -18 13 -20
37 -5 27 18 64 22 105 12 35 -9 44 1 14 16 -33 17 -102 17 -117 -1z"/>
<path d="M8540 657 c0 -31 -15 -44 -24 -21 -4 9 -9 15 -11 12 -10 -10 7 -38
24 -38 13 0 13 -2 2 -9 -9 -6 -10 -11 -2 -15 6 -4 11 -27 11 -52 0 -24 4 -44
8 -44 10 0 10 176 0 186 -5 4 -8 -4 -8 -19z"/>
<path d="M9435 657 c-26 -15 -40 -29 -40 -42 0 -11 -6 -19 -12 -17 -8 1 -13
-10 -14 -30 0 -18 -2 -43 -5 -55 -2 -12 3 -28 11 -36 8 -8 11 -19 7 -23 -4 -5
-1 -4 6 1 8 8 9 20 3 43 -24 83 41 165 124 157 21 -2 39 3 46 11 20 24 -79 16
-126 -9z"/>
<path d="M9934 643 c-9 -21 -24 -58 -35 -82 -14 -32 -16 -47 -8 -60 9 -14 10
-14 5 2 -3 9 -1 17 4 17 6 0 10 7 10 15 0 8 5 15 10 15 6 0 10 6 10 13 0 6 6
24 14 38 12 25 19 79 9 79 -2 0 -11 -17 -19 -37z"/>
<path d="M9037 664 c-10 -10 -9 -274 1 -274 5 0 9 24 10 53 4 111 14 158 39
188 26 31 23 40 -4 13 -15 -15 -17 -14 -28 5 -6 12 -14 18 -18 15z"/>
<path d="M9720 667 c0 -19 33 -91 50 -109 11 -12 19 -27 18 -32 -1 -12 4 -26
35 -96 18 -41 20 -43 33 -25 8 10 14 27 14 36 0 10 5 19 12 21 8 3 8 9 0 24
-11 18 -12 18 -18 -4 -4 -15 -12 -21 -21 -18 -8 3 -19 6 -24 6 -6 0 -9 6 -7
13 2 12 -31 108 -42 117 -3 3 -10 18 -15 34 -8 24 -35 49 -35 33z"/>
<path d="M9577 653 c7 -2 15 -3 17 -1 3 2 12 -6 20 -17 8 -11 18 -17 22 -13
12 13 -18 38 -45 37 -14 0 -20 -3 -14 -6z"/>
<path d="M6225 630 c-6 -10 -5 -11 15 -14 6 0 10 -4 10 -8 0 -5 0 -19 0 -32 0
-19 -4 -23 -20 -19 -14 4 -20 0 -20 -11 0 -9 5 -16 10 -16 6 0 10 4 10 9 0 4
11 6 25 3 22 -4 25 -1 25 22 0 14 -5 26 -12 26 -6 0 -8 3 -5 6 8 8 -11 44 -23
44 -5 0 -12 -4 -15 -10z"/>
<path d="M7365 630 c3 -5 11 -10 16 -10 6 0 7 5 4 10 -3 6 -11 10 -16 10 -6 0
-7 -4 -4 -10z"/>
<path d="M7563 622 c10 -10 17 -35 17 -55 0 -39 5 -43 30 -27 12 8 12 10 -5
11 -11 0 -14 3 -7 6 15 6 16 33 1 33 -5 0 -7 5 -4 10 7 12 -18 40 -36 40 -8 0
-7 -6 4 -18z"/>
<path d="M300 612 c6 -13 14 -21 18 -18 3 4 -2 14 -12 24 -18 16 -18 16 -6 -6z"/>
<path d="M8283 608 c-17 -35 -24 -88 -12 -88 6 0 8 -8 5 -17 -6 -22 38 -80 48
-64 4 6 3 11 -2 11 -5 0 -15 13 -22 30 -12 28 -11 58 4 123 8 33 -6 36 -21 5z"/>
<path d="M7332 587 c-16 -46 -15 -92 3 -107 12 -10 15 -10 15 4 0 9 -4 16 -10
16 -5 0 -10 7 -10 15 0 13 11 19 31 17 3 -1 5 14 5 33 -1 18 -5 30 -10 27 -5
-3 -7 2 -3 11 3 10 3 17 -1 17 -5 0 -13 -15 -20 -33z"/>
<path d="M8669 601 c9 -6 10 -10 2 -12 -14 -5 -25 -70 -18 -101 4 -13 17 -29
29 -37 20 -12 21 -12 12 0 -24 31 -31 73 -17 107 14 34 11 52 -10 52 -8 0 -7
-3 2 -9z"/>
<path d="M6954 567 c-11 -30 4 -91 27 -110 13 -11 23 -23 22 -28 -6 -19 50
-42 105 -43 43 0 66 5 94 23 22 13 35 28 31 34 -5 8 -8 7 -11 -1 -2 -7 -8 -10
-13 -6 -5 3 -9 1 -9 -5 0 -14 -31 -22 -100 -26 -40 -2 -58 1 -53 8 3 5 2 7 -4
4 -5 -3 -17 7 -27 24 -9 16 -25 29 -34 30 -10 0 -12 3 -4 6 6 2 12 9 12 15 0
6 -7 8 -15 4 -18 -7 -19 -2 -2 25 10 17 10 23 0 26 -7 3 -13 9 -13 15 0 6 7 7
16 4 8 -3 12 -2 9 4 -9 14 -25 12 -31 -3z m169 -174 c-7 -2 -19 -2 -25 0 -7 3
-2 5 12 5 14 0 19 -2 13 -5z"/>
<path d="M6115 551 l-50 -6 65 -6 c36 -4 67 -4 70 -2 5 4 -22 24 -30 21 -3 -1
-27 -4 -55 -7z"/>
<path d="M7420 550 l-35 -7 31 -2 c17 0 53 -4 80 -7 46 -5 48 -4 30 10 -21 17
-48 18 -106 6z"/>
<path d="M7545 550 c3 -5 8 -10 11 -10 2 0 4 5 4 10 0 6 -5 10 -11 10 -5 0 -7
-4 -4 -10z"/>
<path d="M6000 541 c0 -18 17 -20 36 -6 18 14 18 14 -8 15 -16 0 -28 -4 -28
-9z"/>
<path d="M5990 500 c0 -11 9 -28 19 -37 11 -9 18 -20 15 -25 -3 -4 2 -8 10 -8
13 0 13 3 1 28 -8 15 -16 35 -19 45 -7 23 -26 22 -26 -3z"/>
<path d="M8510 448 c-11 -15 -29 -28 -40 -28 -11 0 -20 -5 -20 -11 0 -7 -11
-9 -28 -6 -15 3 -34 2 -41 -2 -8 -5 5 -9 33 -9 25 -1 48 3 51 9 4 5 10 7 15 4
5 -3 15 3 22 14 9 15 15 17 25 9 15 -12 17 -54 3 -63 -12 -8 -13 -45 -1 -45
13 0 20 23 27 93 5 54 4 64 -9 64 -9 0 -25 -13 -37 -29z"/>
<path d="M6245 459 c-4 -6 -3 -15 3 -21 6 -6 11 -4 15 6 7 18 -9 31 -18 15z"/>
<path d="M7562 445 c-11 -14 -25 -25 -32 -25 -6 0 -9 -4 -6 -9 4 -5 -3 -7 -13
-4 -11 3 -30 -3 -43 -12 -23 -17 -22 -17 20 -11 47 7 91 33 92 54 0 6 5 12 10
12 6 0 10 5 10 10 0 18 -18 11 -38 -15z"/>
<path d="M8880 440 c-24 -27 -36 -50 -25 -50 13 0 74 64 69 71 -8 13 -17 9
-44 -21z"/>
<path d="M9409 434 c14 -28 38 -47 51 -39 13 8 2 27 -13 22 -6 -2 -20 6 -30
17 l-18 21 10 -21z"/>
<path d="M9622 444 c3 -5 0 -15 -8 -22 -11 -10 -14 -10 -14 0 0 9 -3 9 -12 0
-7 -7 -33 -12 -60 -12 -38 0 -46 -3 -42 -15 5 -11 18 -13 52 -10 26 3 48 9 50
15 2 6 7 8 12 5 4 -2 15 4 24 14 13 14 14 21 5 27 -7 4 -10 3 -7 -2z"/>
<path d="M1675 429 c-4 -6 -5 -12 -2 -15 2 -3 7 2 10 11 7 17 1 20 -8 4z"/>
<path d="M7370 433 c0 -4 5 -15 10 -23 8 -13 10 -13 10 2 0 9 -4 20 -10 23 -5
3 -10 3 -10 -2z"/>
<path d="M6212 423 c-6 -2 -10 -8 -7 -12 5 -9 -98 -5 -132 5 -14 4 -23 2 -23
-4 0 -12 61 -32 98 -32 12 0 22 4 22 9 0 5 9 7 19 4 13 -3 23 2 30 16 7 12 10
21 9 20 -2 0 -9 -3 -16 -6z"/>
<path d="M8348 418 c5 -5 16 -8 23 -6 8 3 3 7 -10 11 -17 4 -21 3 -13 -5z"/>
<path d="M8690 421 c0 -12 38 -30 76 -36 31 -5 36 -4 24 5 -12 9 -10 10 12 6
16 -4 30 -1 34 6 5 8 -9 9 -57 5 -37 -4 -58 -3 -51 2 10 6 7 10 -12 13 -14 3
-26 2 -26 -1z"/>
<path d="M7403 405 c0 -16 21 -19 52 -5 19 8 19 9 -2 9 -12 1 -28 3 -36 6 -8
4 -14 0 -14 -10z"/>
<path d="M9820 386 c0 -3 -9 -28 -20 -56 l-20 -51 21 12 c16 8 18 13 9 19 -10
6 -9 10 2 16 20 12 32 50 18 59 -5 3 -10 4 -10 1z"/>
<path d="M8290 332 c0 -14 23 -32 42 -32 10 0 18 -4 18 -9 0 -5 14 -11 31 -15
36 -7 111 3 104 14 -3 4 1 7 8 6 6 0 12 4 12 9 0 6 -4 8 -10 6 -5 -2 -29 -6
-52 -8 -24 -3 -40 -9 -37 -14 3 -5 0 -9 -5 -9 -6 0 -11 4 -11 8 0 5 -18 14
-40 21 -22 6 -40 16 -40 21 0 6 -4 10 -10 10 -5 0 -10 -4 -10 -8z"/>
<path d="M1374 287 c-3 -8 -6 -31 -8 -53 -2 -21 -6 -47 -11 -57 -7 -16 -3 -18
31 -15 l39 3 -4 55 c-3 53 -14 80 -33 80 -5 0 -11 -6 -14 -13z"/>
<path d="M1296 278 c-3 -7 -9 -30 -15 -51 -9 -35 -8 -39 15 -49 13 -6 26 -9
29 -6 3 3 6 29 8 59 2 44 -1 54 -16 57 -9 2 -19 -2 -21 -10z"/>
<path d="M1115 240 c3 -5 17 -10 30 -10 13 0 27 5 30 10 4 6 -8 10 -30 10 -22
0 -34 -4 -30 -10z"/>
<path d="M1207 239 c-17 -10 -16 -13 12 -30 17 -10 33 -19 35 -19 1 0 1 14 -2
30 -5 32 -15 36 -45 19z"/>
<path d="M1447 208 c-6 -39 -2 -48 22 -48 25 0 42 41 26 63 -20 28 -42 21 -48
-15z"/>
</g>
</svg>
